<svg width="800" height="600" xmlns="http://www.w3.org/2000/svg">
 <g>
  <title>Layer 1</title>
  <g id="svg_1">
   <title>Ellipse</title>
   <circle id="svg_2" cx="400" cy="300" r="192" fill="none" stroke="currentColor" stroke-linecap="round" stroke-linejoin="round" stroke-width="32"/>
  </g>
  <g id="svg_3" stroke="null">
   <title stroke="null">Logo Tiktok</title>
   <path stroke="null" id="svg_4" d="m469.85269,238.5803a48.86227,48.86227 0 0 1 -4.22576,-2.45944a59.41548,59.41548 0 0 1 -10.85281,-9.22064c-8.09378,-9.26089 -11.11664,-18.65593 -12.2301,-25.2338l0.04472,0c-0.93011,-5.45995 -0.54554,-8.99258 -0.48742,-8.99258l-36.8647,0l0,142.54886c0,1.91388 0,3.80541 -0.08049,5.67459c0,0.23253 -0.02235,0.44717 -0.03577,0.69758c0,0.10285 0,0.21017 -0.02235,0.31749l0,0.08049a31.3019,31.3019 0 0 1 -15.74933,24.84477a30.76529,30.76529 0 0 1 -15.25297,4.02454c-17.1758,0 -31.0962,-14.00536 -31.0962,-31.3019s13.92041,-31.3019 31.0962,-31.3019a30.81001,30.81001 0 0 1 9.57391,1.51591l0.04472,-37.53546a68.47962,68.47962 0 0 0 -52.76606,15.43631a72.34764,72.34764 0 0 0 -15.7851,19.46531c-1.55615,2.68302 -7.4275,13.46429 -8.13849,30.96205c-0.44717,9.93164 2.53546,20.22103 3.95745,24.47362l0,0.08944c0.89434,2.50415 4.3599,11.04957 10.00766,18.25348a74.91439,74.91439 0 0 0 15.96844,15.06516l0,-0.08944l0.08944,0.08944c17.84656,12.12725 37.63383,11.33128 37.63383,11.33128c3.42533,-0.13862 14.8997,0 27.93024,-6.17541c14.45253,-6.84617 22.68046,-17.04612 22.68046,-17.04612a70.85856,70.85856 0 0 0 12.35978,-20.53852c3.33589,-8.769 4.44934,-19.28644 4.44934,-23.48984l0,-75.62539c0.44717,0.2683 6.40347,4.20786 6.40347,4.20786s8.5812,5.50019 21.96946,9.08202c9.60521,2.54887 22.54631,3.08548 22.54631,3.08548l0,-36.59639c-4.53431,0.49189 -13.74153,-0.93906 -23.16788,-5.63881l0.00001,-0.00002z"/>
  </g>
 </g>

</svg>